<svg xmlns="http://www.w3.org/2000/svg" aria-label="Idle Farm Tycoon gameplay collage" role="img" viewBox="0 0 1200 700"><defs><linearGradient id="bg" x1="0" x2="1" y1="0" y2="1"><stop offset="0" stop-color="#f5fff5"/><stop offset="1" stop-color="#d8f1d8"/></linearGradient></defs><rect width="1200" height="700" fill="url(#bg)" stroke="#c7e5c7" rx="32"/><rect width="500" height="250" x="70" y="80" fill="#fff" stroke="#d5e8d5" rx="24"/><rect width="500" height="250" x="630" y="80" fill="#fff" stroke="#d5e8d5" rx="24"/><rect width="500" height="250" x="70" y="380" fill="#fff" stroke="#d5e8d5" rx="24"/><rect width="500" height="250" x="630" y="380" fill="#fff" stroke="#d5e8d5" rx="24"/><g fill="#2e7d32" font-family="Sora, Arial" font-size="26"><text x="110" y="130">Crops Dashboard</text><text x="670" y="130">Upgrade Market</text><text x="110" y="430">Barn Automation</text><text x="670" y="430">Town Expansion</text></g><g><rect width="140" height="140" x="120" y="160" fill="#dff3df" rx="18"/><rect width="230" height="50" x="290" y="160" fill="#bfe6b9" rx="10"/><rect width="230" height="50" x="290" y="230" fill="#bfe6b9" rx="10"/><rect width="230" height="50" x="290" y="300" fill="#bfe6b9" rx="10"/></g><g><rect width="420" height="50" x="680" y="160" fill="#bfe6b9" rx="10"/><rect width="420" height="50" x="680" y="230" fill="#bfe6b9" rx="10"/><rect width="240" height="50" x="680" y="300" fill="#ffd972" rx="10"/></g><g><rect width="190" height="140" x="120" y="460" fill="#cfe8cf" rx="18"/><rect width="210" height="50" x="330" y="460" fill="#bfe6b9" rx="10"/><rect width="210" height="50" x="330" y="530" fill="#bfe6b9" rx="10"/></g><g><rect width="180" height="140" x="680" y="460" fill="#cfe8cf" rx="18"/><rect width="210" height="50" x="880" y="460" fill="#bfe6b9" rx="10"/><rect width="210" height="50" x="880" y="530" fill="#bfe6b9" rx="10"/></g></svg>