<svg xmlns="http://www.w3.org/2000/svg" viewBox="0 0 1200 700" role="img" aria-label="Idle Farm Tycoon gameplay collage">
  <defs>
    <linearGradient id="bg" x1="0" x2="1" y1="0" y2="1">
      <stop offset="0" stop-color="#f5fff5"/>
      <stop offset="1" stop-color="#d8f1d8"/>
    </linearGradient>
  </defs>
  <rect width="1200" height="700" rx="32" fill="url(#bg)" stroke="#c7e5c7"/>
  <rect x="70" y="80" width="500" height="250" rx="24" fill="#ffffff" stroke="#d5e8d5"/>
  <rect x="630" y="80" width="500" height="250" rx="24" fill="#ffffff" stroke="#d5e8d5"/>
  <rect x="70" y="380" width="500" height="250" rx="24" fill="#ffffff" stroke="#d5e8d5"/>
  <rect x="630" y="380" width="500" height="250" rx="24" fill="#ffffff" stroke="#d5e8d5"/>

  <g font-family="Sora, Arial" fill="#2e7d32" font-size="26">
    <text x="110" y="130">Crops Dashboard</text>
    <text x="670" y="130">Upgrade Market</text>
    <text x="110" y="430">Barn Automation</text>
    <text x="670" y="430">Town Expansion</text>
  </g>

  <g>
    <rect x="120" y="160" width="140" height="140" rx="18" fill="#dff3df"/>
    <rect x="290" y="160" width="230" height="50" rx="10" fill="#bfe6b9"/>
    <rect x="290" y="230" width="230" height="50" rx="10" fill="#bfe6b9"/>
    <rect x="290" y="300" width="230" height="50" rx="10" fill="#bfe6b9"/>
  </g>

  <g>
    <rect x="680" y="160" width="420" height="50" rx="10" fill="#bfe6b9"/>
    <rect x="680" y="230" width="420" height="50" rx="10" fill="#bfe6b9"/>
    <rect x="680" y="300" width="240" height="50" rx="10" fill="#ffd972"/>
  </g>

  <g>
    <rect x="120" y="460" width="190" height="140" rx="18" fill="#cfe8cf"/>
    <rect x="330" y="460" width="210" height="50" rx="10" fill="#bfe6b9"/>
    <rect x="330" y="530" width="210" height="50" rx="10" fill="#bfe6b9"/>
  </g>

  <g>
    <rect x="680" y="460" width="180" height="140" rx="18" fill="#cfe8cf"/>
    <rect x="880" y="460" width="210" height="50" rx="10" fill="#bfe6b9"/>
    <rect x="880" y="530" width="210" height="50" rx="10" fill="#bfe6b9"/>
  </g>
</svg>
