<svg xmlns="http://www.w3.org/2000/svg" aria-label="Idle Farm Tycoon hero artwork" role="img" viewBox="0 0 1200 720"><defs><linearGradient id="sky" x1="0" x2="0" y1="0" y2="1"><stop offset="0" stop-color="#f4fff4"/><stop offset="1" stop-color="#cfeecd"/></linearGradient><linearGradient id="field" x1="0" x2="1" y1="0" y2="0"><stop offset="0" stop-color="#bfe6b9"/><stop offset="1" stop-color="#91d79a"/></linearGradient><linearGradient id="roof" x1="0" x2="1" y1="0" y2="1"><stop offset="0" stop-color="#f28482"/><stop offset="1" stop-color="#e85d5d"/></linearGradient></defs><rect width="1200" height="720" fill="url(#sky)"/><path fill="url(#field)" d="M0 420c180-70 360-70 540 0s360 70 660 0v300H0z"/><path fill="#79c98a" d="M0 510c220-60 440-60 660 0s360 60 540 0v210H0z"/><g><circle cx="100" cy="120" r="50" fill="#ffe066"/><g stroke="#ffe066" stroke-width="6"><line x1="100" x2="100" y1="36" y2="10"/><line x1="100" x2="100" y1="206" y2="230"/><line x1="16" x2="-10" y1="120" y2="120"/><line x1="184" x2="210" y1="120" y2="120"/><line x1="40" x2="20" y1="60" y2="40"/><line x1="160" x2="180" y1="60" y2="40"/></g></g><g><rect width="260" height="160" x="170" y="310" fill="#f7e7c7" stroke="#d9c6a3" rx="16"/><polygon fill="url(#roof)" points="140 310 300 210 460 310"/><rect width="60" height="110" x="280" y="360" fill="#9c6644" rx="8"/><rect width="60" height="50" x="200" y="350" fill="#90be6d" rx="8"/></g><g><rect width="320" height="210" x="640" y="270" fill="#f2e9e4" stroke="#d0c2b9" rx="18"/><polygon fill="#f3722c" points="610 270 800 160 990 270"/><rect width="80" height="140" x="760" y="340" fill="#9c6644" rx="10"/><rect width="80" height="60" x="670" y="330" fill="#84a59d" rx="10"/><rect width="80" height="60" x="860" y="330" fill="#84a59d" rx="10"/></g><g><rect width="26" height="90" x="70" y="460" fill="#6b705c"/><circle cx="83" cy="450" r="30" fill="#7bcf86"/><rect width="26" height="90" x="1060" y="460" fill="#6b705c"/><circle cx="1073" cy="450" r="30" fill="#7bcf86"/></g><g><rect width="280" height="120" x="460" y="440" fill="#fff" opacity=".75" rx="18"/><text x="600" y="490" fill="#2e7d32" font-family="Sora, Arial" font-size="32" text-anchor="middle">Idle Farm Tycoon</text><text x="600" y="525" fill="#4f5f4f" font-family="Source Sans 3, Arial" font-size="18" text-anchor="middle">Relax. Build. Expand. Prosper.</text></g></svg>